<svg xmlns="http://www.w3.org/2000/svg" viewBox="0 0 64 64">
  <defs>
    <linearGradient id="bg" x1="0" y1="0" x2="1" y2="1">
      <stop offset="0%" stop-color="#f3ddc6" />
      <stop offset="100%" stop-color="#d88a61" />
    </linearGradient>
    <linearGradient id="roof" x1="0" y1="0" x2="1" y2="1">
      <stop offset="0%" stop-color="#8e4f3a" />
      <stop offset="100%" stop-color="#63392b" />
    </linearGradient>
  </defs>
  <rect x="4" y="4" width="56" height="56" rx="18" fill="url(#bg)" />
  <path
    d="M18 31.5 32 18l14 13.5v13.2A4.3 4.3 0 0 1 41.7 49H22.3A4.3 4.3 0 0 1 18 44.7Z"
    fill="#fff8f2"
  />
  <path
    d="M13.8 31.4a2.2 2.2 0 0 1 0-3.1l16.7-15.8a2.2 2.2 0 0 1 3 0l16.7 15.8a2.2 2.2 0 1 1-3 3.1L32 20.8 16.8 34.5a2.2 2.2 0 0 1-3-.1Z"
    fill="url(#roof)"
  />
  <rect x="27.5" y="34" width="9" height="15" rx="3.2" fill="#cc7a53" />
  <rect x="22" y="30" width="6.5" height="6.5" rx="2" fill="#dbe8ef" />
  <rect x="35.5" y="30" width="6.5" height="6.5" rx="2" fill="#dbe8ef" />
</svg>
